HIERARCHY
ROOT Hips
{
	OFFSET	0.00	0.00	0.00
	CHANNELS 6 Xposition Yposition Zposition Zrotation Xrotation Yrotation
	JOINT LeftUpLeg
	{
		OFFSET	 0.126116	-0.065224	 0.014019
		CHANNELS 3 Zrotation Xrotation Yrotation
		JOINT LeftLeg
		{
			OFFSET	 0.000000	 0.569914	 0.000000
			CHANNELS 3 Zrotation Xrotation Yrotation
			JOINT LeftFoot
			{
				OFFSET	 0.000000	 0.544423	 0.000000
				CHANNELS 3 Zrotation Xrotation Yrotation
				JOINT LeftToeBase
				{
					OFFSET	 0.000000	 0.207117	 0.000000
					CHANNELS 3 Zrotation Xrotation Yrotation
					End Site
					{
						OFFSET	 0.000000	 0.207117	 0.000000
					}
				}
			}
		}
	}
	JOINT RightUpLeg
	{
		OFFSET	-0.124023	-0.065224	 0.008373
		CHANNELS 3 Zrotation Xrotation Yrotation
		JOINT RightLeg
		{
			OFFSET	 0.000000	 0.570047	 0.000000
			CHANNELS 3 Zrotation Xrotation Yrotation
			JOINT RightFoot
			{
				OFFSET	 0.000000	 0.544354	 0.000000
				CHANNELS 3 Zrotation Xrotation Yrotation
				JOINT RightToeBase
				{
					OFFSET	 0.000000	 0.207540	 0.000000
					CHANNELS 3 Zrotation Xrotation Yrotation
					End Site
					{
						OFFSET	 0.000000	 0.207540	 0.000000
					}
				}
			}
		}
	}
	JOINT Spine
	{
		OFFSET	 0.000184	 0.117403	 0.007763
		CHANNELS 3 Zrotation Xrotation Yrotation
		JOINT Spine1
		{
			OFFSET	 0.000000	 0.137269	 0.000000
			CHANNELS 3 Zrotation Xrotation Yrotation
			JOINT Spine2
			{
				OFFSET	 0.000000	 0.156879	 0.000000
				CHANNELS 3 Zrotation Xrotation Yrotation
				JOINT LeftShoulder
				{
					OFFSET	 0.080501	 0.160143	 0.002496
					CHANNELS 3 Zrotation Xrotation Yrotation
					JOINT LeftArm
					{
						OFFSET	 0.000000	 0.164363	 0.000000
						CHANNELS 3 Zrotation Xrotation Yrotation
						JOINT LeftForeArm
						{
							OFFSET	 0.000000	 0.364576	 0.000000
							CHANNELS 3 Zrotation Xrotation Yrotation
							JOINT LeftHand
							{
								OFFSET	 0.000000	 0.360812	 0.000000
								CHANNELS 3 Zrotation Xrotation Yrotation
								JOINT LeftHandIndex1
								{
									OFFSET	 0.000000	 0.086006	 0.000000
									CHANNELS 3 Zrotation Xrotation Yrotation
									JOINT LeftHandIndex2
									{
										OFFSET	 0.000000	 0.047237	 0.000000
										CHANNELS 3 Zrotation Xrotation Yrotation
										JOINT LeftHandIndex3
										{
											OFFSET	-0.004284	 0.038165	 0.000551
											CHANNELS 3 Zrotation Xrotation Yrotation
											End Site
											{
												OFFSET	-0.004284	 0.038165	 0.000551
											}
										}
									}
								}
							}
						}
					}
				}
				JOINT Neck
				{
					OFFSET	 0.000000	 0.176489	 0.000000
					CHANNELS 3 Zrotation Xrotation Yrotation
					JOINT Head
					{
						OFFSET	 0.000000	 0.077941	 0.001747
						CHANNELS 3 Zrotation Xrotation Yrotation
						End Site
						{
							OFFSET	 0.000000	 0.077941	 0.001747
						}
					}
				}
				JOINT RightShoulder
				{
					OFFSET	-0.080363	 0.159706	-0.000306
					CHANNELS 3 Zrotation Xrotation Yrotation
					JOINT RightArm
					{
						OFFSET	 0.000000	 0.164196	 0.000000
						CHANNELS 3 Zrotation Xrotation Yrotation
						JOINT RightForeArm
						{
							OFFSET	 0.000000	 0.365611	 0.000000
							CHANNELS 3 Zrotation Xrotation Yrotation
							JOINT RightHand
							{
								OFFSET	 0.000000	 0.360648	 0.000000
								CHANNELS 3 Zrotation Xrotation Yrotation
								JOINT RightHandIndex1
								{
									OFFSET	 0.000000	 0.069977	 0.000000
									CHANNELS 3 Zrotation Xrotation Yrotation
									JOINT RightHandIndex2
									{
										OFFSET	 0.000000	 0.052305	 0.000000
										CHANNELS 3 Zrotation Xrotation Yrotation
										JOINT RightHandIndex3
										{
											OFFSET	 0.009002	 0.042196	 0.000782
											CHANNELS 3 Zrotation Xrotation Yrotation
											End Site
											{
												OFFSET	 0.009002	 0.042196	 0.000782
											}
										}
									}
								}
							}
						}
					}
				}
			}
		}
	}
}
MOTION
Frames:    6
Frame Time: 0.03333334
-0.017177	 1.255520	 0.115089	 4.680365	 0.281372	 174.002400	 175.108200	 15.439830	 37.536640	 3.113147	-30.499270	 1.433758	 53.409000	 48.964080	-69.457710	 4.912823	 28.009660	-6.307255	-165.538600	-2.064959	-30.312950	-0.526120	-6.081562	 2.129981	-51.241210	 50.367310	 49.287710	-0.377305	 31.172660	 1.633844	 1.286287	 4.039104	-8.209654	 9.693811	 8.042010	-4.649144	-8.293365	-5.951413	 15.659020	-112.562200	 3.126890	 88.313960	-11.363870	 51.696670	 36.380890	 30.868600	-1.549628	 0.995627	-13.427630	-6.773875	-72.518880	-8.013247	 12.512670	-5.834206	-7.228757	 12.663320	 2.803917	 4.963066	-4.014628	-0.346955	 1.517269	-13.913350	 1.353574	-2.004689	 8.926846	-24.447030	 109.124400	 0.675589	-88.595660	-13.676670	 68.750210	 12.917930	-5.091270	-0.470481	 41.370500	-13.897100	 7.501100	-81.898640	 2.011455	 8.297625	 8.960588	 15.202900	 20.249440	-6.344316	-8.239867	-2.131385	 0.447455
-0.017216	 1.255398	 0.115013	 4.657871	 0.259329	 174.045800	 175.062000	 15.477260	 37.588840	 3.116774	-30.528470	 1.453996	 53.422910	 48.956000	-69.484970	 4.912825	 28.009670	-6.307249	-165.472900	-1.917836	-30.269760	-0.552936	-6.389067	 2.081383	-51.411000	 50.439660	 49.537200	-0.381112	 31.177300	 1.637619	 1.278748	 4.044290	-8.211637	 9.611626	 7.971959	-4.634751	-8.198840	-5.873864	 15.642140	-112.540600	 3.099785	 88.310250	-11.328120	 51.780240	 36.304440	 30.797060	-1.546367	 0.992727	-13.465620	-6.810692	-72.243290	-7.988312	 12.533110	-5.840378	-7.228871	 12.658580	 2.803270	 4.963066	-4.014628	-0.346955	 1.494929	-13.879410	 1.364994	-1.993892	 9.023644	-24.517250	 109.097300	 0.696264	-88.606160	-13.644510	 68.727230	 12.975700	-5.091437	-0.470569	 41.304340	-13.724010	 7.468139	-81.926920	 1.989995	 8.239738	 8.960071	 15.202980	 20.262280	-6.347830	-8.239867	-2.131385	 0.447455
-0.017268	 1.255241	 0.114913	 4.630287	 0.232301	 174.099900	 175.004500	 15.523540	 37.653230	 3.121492	-30.566220	 1.478890	 53.440970	 48.947360	-69.519330	 4.912827	 28.009680	-6.307241	-165.394700	-1.740638	-30.217820	-0.585218	-6.758754	 2.022157	-51.618600	 50.525030	 49.841160	-0.385788	 31.183020	 1.642257	 1.269951	 4.051370	-8.213385	 9.509443	 7.885768	-4.616627	-8.082062	-5.778847	 15.621140	-112.514000	 3.066507	 88.305680	-11.286960	 51.881350	 36.212330	 30.709390	-1.542350	 0.989185	-13.508750	-6.855970	-71.902380	-7.957682	 12.558220	-5.847973	-7.229011	 12.652750	 2.802474	 4.963066	-4.014628	-0.346955	 1.467488	-13.837720	 1.379036	-1.980421	 9.142493	-24.603570	 109.064100	 0.721642	-88.619000	-13.593550	 68.698270	 13.035870	-5.093485	-0.470698	 41.222660	-13.512650	 7.429623	-81.958240	 1.963642	 8.168643	 8.959404	 15.203090	 20.278060	-6.352147	-8.239867	-2.131385	 0.447455
-0.017336	 1.255044	 0.114776	 4.597066	 0.199793	 174.164200	 174.933700	 15.579550	 37.731070	 3.127575	-30.615180	 1.508811	 53.465490	 48.937810	-69.564170	 4.912828	 28.009690	-6.307231	-165.304100	-1.531639	-30.155230	-0.623334	-7.194545	 1.951643	-51.865360	 50.626190	 50.201200	-0.391405	 31.189880	 1.647828	 1.259374	 4.059731	-8.213517	 9.386053	 7.782739	-4.593556	-7.941873	-5.664694	 15.595440	-112.482000	 3.026509	 88.300220	-11.241540	 52.000740	 36.104420	 30.603360	-1.537506	 0.984882	-13.554550	-6.910786	-71.489080	-7.920879	 12.588360	-5.857116	-7.229177	 12.645750	 2.801519	 4.963066	-4.014628	-0.346955	 1.434516	-13.787660	 1.395928	-1.963928	 9.285217	-24.707480	 109.024200	 0.752164	-88.634470	-13.520340	 68.662020	 13.097180	-5.095109	-0.470837	 41.124680	-13.261740	 7.387443	-81.991300	 1.931989	 8.083239	 8.958563	 15.203220	 20.297000	-6.357332	-8.239867	-2.131385	 0.447455
-0.017422	 1.254806	 0.114604	 4.559360	 0.162985	 174.237800	 174.851200	 15.643860	 37.820050	 3.135065	-30.675200	 1.542958	 53.495980	 48.928970	-69.618130	 4.912830	 28.009700	-6.307221	-165.204900	-1.298954	-30.084820	-0.665862	-7.679526	 1.872255	-52.144310	 50.737700	 50.606550	-0.397799	 31.197690	 1.654168	 1.247970	 4.069537	-8.211920	 9.243873	 7.666844	-4.566452	-7.781646	-5.535489	 15.565670	-112.445700	 2.981002	 88.294040	-11.194430	 52.133820	 35.984740	 30.482250	-1.531910	 0.980042	-13.599420	-6.973421	-71.014560	-7.878995	 12.622660	-5.867542	-7.229369	 12.637790	 2.800432	 4.963066	-4.014628	-0.346955	 1.396992	-13.730710	 1.415179	-1.944754	 9.447550	-24.825830	 108.978800	 0.786868	-88.652000	-13.421380	 68.619030	 13.152230	-5.097030	-0.471043	 41.013620	-12.979570	 7.344409	-82.023610	 1.895983	 7.986069	 8.957546	 15.203370	 20.318550	-6.363231	-8.239867	-2.131385	 0.447455
-0.017529	 1.254519	 0.114386	 4.516402	 0.120962	 174.321500	 174.754800	 15.718030	 37.922230	 3.144300	-30.749100	 1.581907	 53.534350	 48.920860	-69.684060	 4.912834	 28.009710	-6.307209	-165.096400	-1.039271	-30.004700	-0.713375	-8.220285	 1.782971	-52.459460	 50.862060	 51.062390	-0.405082	 31.206590	 1.661392	 1.235440	 4.081694	-8.207439	 9.080291	 7.534399	-4.533716	-7.598640	-5.388252	 15.531020	-112.404300	 2.929182	 88.287020	-11.146030	 52.282340	 35.852180	 30.342840	-1.525535	 0.974377	-13.641130	-7.045156	-70.468280	-7.831277	 12.661710	-5.879452	-7.229585	 12.628730	 2.799194	 4.963066	-4.014628	-0.346955	 1.354240	-13.665860	 1.437146	-1.922377	 9.632355	-24.960940	 108.927100	 0.826440	-88.671950	-13.287870	 68.567960	 13.195650	-5.099566	-0.471318	 40.887310	-12.662390	 7.301425	-82.053310	 1.854979	 7.875393	 8.956314	 15.203540	 20.343100	-6.369954	-8.239867	-2.131385	 0.447455
